<?xml version="1.0" encoding="utf-8"?>
<svg width="81" height="80" viewBox="0 0 81 80" xmlns="http://www.w3.org/2000/svg">
  <defs>
    <linearGradient id="pluginsdk_80-a" x1="-.031%" x2="100.053%" y1="49.963%" y2="49.963%">
      <stop offset="0.2581" stop-color="#F97A12"/>
      <stop offset="0.4591" stop-color="#B07B58"/>
      <stop offset="0.7241" stop-color="#577BAE"/>
      <stop offset="0.9105" stop-color="#1E7CE5"/>
      <stop offset="1" stop-color="#087CFA"/>
    </linearGradient>
    <linearGradient id="pluginsdk_80-b" x1="27.55%" x2="82.223%" y1="34.514%" y2="77.605%">
      <stop offset="0" stop-color="#F97A12"/>
      <stop offset="0.0718" stop-color="#CB7A3E"/>
      <stop offset="0.1541" stop-color="#9E7B6A"/>
      <stop offset="0.242" stop-color="#757B91"/>
      <stop offset="0.3344" stop-color="#537BB1"/>
      <stop offset="0.4324" stop-color="#387CCC"/>
      <stop offset="0.5381" stop-color="#237CE0"/>
      <stop offset="0.6552" stop-color="#147CEF"/>
      <stop offset="0.7925" stop-color="#0B7CF7"/>
      <stop offset="1" stop-color="#087CFA"/>
    </linearGradient>
    <linearGradient id="pluginsdk_80-c" x1="63.121%" x2="40.793%" y1="97.699%" y2="-6.587%">
      <stop offset="0" stop-color="#FE315D"/>
      <stop offset="0.0784" stop-color="#CB417E"/>
      <stop offset="0.1601" stop-color="#9E4E9B"/>
      <stop offset="0.2474" stop-color="#755BB4"/>
      <stop offset="0.3392" stop-color="#5365CA"/>
      <stop offset="0.4365" stop-color="#386DDB"/>
      <stop offset="0.5414" stop-color="#2374E9"/>
      <stop offset="0.6576" stop-color="#1478F3"/>
      <stop offset="0.794" stop-color="#0B7BF8"/>
      <stop offset="1" stop-color="#087CFA"/>
    </linearGradient>
    <linearGradient id="pluginsdk_80-d" x1="25.331%" x2="93.854%" y1="24.119%" y2="132.621%">
      <stop offset="0" stop-color="#FE315D"/>
      <stop offset="0.0402" stop-color="#F63462"/>
      <stop offset="0.1037" stop-color="#DF3A71"/>
      <stop offset="0.1667" stop-color="#C24383"/>
      <stop offset="0.2912" stop-color="#AD4A91"/>
      <stop offset="0.5498" stop-color="#755BB4"/>
      <stop offset="0.9175" stop-color="#1D76ED"/>
      <stop offset="1" stop-color="#087CFA"/>
    </linearGradient>
  </defs>
  <g fill="none" fill-rule="evenodd">
    <g fill-rule="nonzero" transform="translate(8 8)">
      <path fill="url(#pluginsdk_80-a)" d="M6.08754566,64 L2.66453526e-15,59.1000946 L0,26.7918961 L30,38.6703369 L10.1403967,64 L6.08754566,64 Z"/>
      <path fill="url(#pluginsdk_80-b)" d="M20.9524706,64 L52.2740919,31.9159091 L37.6708832,0.460194805 L38.0580944,1.33226763e-15 L64,0 L64,64 L20.9524706,64 Z"/>
      <path fill="url(#pluginsdk_80-c)" d="M34.4123783,0 L64,0 L64,28.0366227 L49.0078336,44 L34,0.44696173 L34.4123783,0 Z"/>
      <path fill="url(#pluginsdk_80-d)" d="M30.3358775,64 L0,64 L0,49.9709549 L6.23437817,29.2830519 L0,27.1596093 L0,0 L39.4697238,0 L58,21.3844805 L30.5381317,63.9259091 L30.3358775,64 Z"/>
    </g>
    <g fill-rule="nonzero" transform="translate(12 12)">
      <rect width="56" height="56" fill="#000"/>
      <rect width="10.713" height="1.948" x="4.376" y="5.556" fill="#FFFEFE" style=""/>
    </g>
  </g>
  <path d="M 68.539 50.367 L 62.732 50.367 L 62.732 44.068 L 67.856 38.944 C 68.613 38.188 68.613 36.962 67.856 36.207 C 67.101 35.451 65.875 35.451 65.119 36.207 L 62.061 39.265 C 60.399 34.465 55.832 31.009 50.474 31.009 C 45.116 31.009 40.55 34.465 38.887 39.266 L 35.829 36.207 C 35.073 35.451 33.847 35.451 33.092 36.207 C 32.335 36.962 32.335 38.188 33.092 38.944 L 38.216 44.068 L 38.216 50.367 L 32.409 50.367 C 31.341 50.367 30.474 51.234 30.474 52.303 C 30.474 53.372 31.341 54.239 32.409 54.239 L 38.233 54.239 C 38.344 56.344 38.988 58.31 40.032 60.004 L 33.622 66.414 C 32.865 67.17 32.865 68.395 33.622 69.151 C 33.999 69.53 34.495 69.719 34.99 69.719 C 35.485 69.719 35.981 69.53 36.359 69.151 L 42.564 62.946 C 44.701 64.755 47.462 65.848 50.474 65.848 C 50.477 65.848 50.479 65.848 50.482 65.848 C 50.483 65.848 50.484 65.848 50.486 65.848 C 50.488 65.848 50.491 65.848 50.493 65.848 C 53.498 65.842 56.252 64.751 58.384 62.946 L 64.589 69.151 C 64.967 69.53 65.463 69.719 65.958 69.719 C 66.454 69.719 66.949 69.53 67.326 69.151 C 68.083 68.396 68.083 67.171 67.326 66.414 L 60.916 60.004 C 61.96 58.31 62.604 56.344 62.715 54.239 L 68.539 54.239 C 69.607 54.239 70.474 53.372 70.474 52.303 C 70.474 51.234 69.607 50.367 68.539 50.367 Z M 50.474 34.879 C 54.433 34.879 57.76 37.636 58.636 41.331 L 42.312 41.331 C 43.188 37.636 46.515 34.879 50.474 34.879 Z M 42.087 53.59 L 42.087 52.393 C 42.088 52.363 42.091 52.333 42.091 52.303 C 42.091 52.273 42.088 52.243 42.087 52.213 L 42.087 45.202 L 48.551 45.202 L 48.551 61.751 C 44.851 60.879 42.087 57.552 42.087 53.59 Z M 52.422 61.746 L 52.422 45.202 L 58.861 45.202 L 58.861 52.208 C 58.86 52.24 58.857 52.271 58.857 52.303 C 58.857 52.335 58.86 52.367 58.861 52.398 L 58.861 53.589 C 58.861 57.544 56.109 60.865 52.422 61.746 Z" style="paint-order: stroke; fill: rgb(255, 255, 255);" transform="matrix(-0.707107, 0.707107, -0.707107, -0.707107, 121.777235, 50.286218)"/>
  <g transform="matrix(0.169423, 0, 0, 0.169423, 28.309942, 72.038292)" style=""/>
  <g transform="matrix(0.169423, 0, 0, 0.169423, 28.309942, 72.038292)" style=""/>
  <g transform="matrix(0.169423, 0, 0, 0.169423, 28.309942, 72.038292)" style=""/>
  <g transform="matrix(0.169423, 0, 0, 0.169423, 28.309942, 72.038292)" style=""/>
  <g transform="matrix(0.169423, 0, 0, 0.169423, 28.309942, 72.038292)" style=""/>
  <g transform="matrix(0.169423, 0, 0, 0.169423, 28.309942, 72.038292)" style=""/>
  <g transform="matrix(0.169423, 0, 0, 0.169423, 28.309942, 72.038292)" style=""/>
  <g transform="matrix(0.169423, 0, 0, 0.169423, 28.309942, 72.038292)" style=""/>
  <g transform="matrix(0.169423, 0, 0, 0.169423, 28.309942, 72.038292)" style=""/>
  <g transform="matrix(0.169423, 0, 0, 0.169423, 28.309942, 72.038292)" style=""/>
  <g transform="matrix(0.169423, 0, 0, 0.169423, 28.309942, 72.038292)" style=""/>
  <g transform="matrix(0.169423, 0, 0, 0.169423, 28.309942, 72.038292)" style=""/>
  <g transform="matrix(0.169423, 0, 0, 0.169423, 28.309942, 72.038292)" style=""/>
  <g transform="matrix(0.169423, 0, 0, 0.169423, 28.309942, 72.038292)" style=""/>
  <g transform="matrix(0.169423, 0, 0, 0.169423, 28.309942, 72.038292)" style=""/>
</svg>